ply
format ascii 1.0
comment zipper output
element vertex 20
property float x
property float y
property float z
element face 36
property list uchar int vertex_indices
end_header
-0.57735 -0.57735 0.57735
0.934172 0.356822 0
0.934172 -0.356822 0
-0.934172 0.356822 0
-0.934172 -0.356822 0
0 0.934172 0.356822
0 0.934172 -0.356822
0.356822 0 -0.934172
-0.356822 0 -0.934172
0 -0.934172 -0.356822
0 -0.934172 0.356822
0.356822 0 0.934172
-0.356822 0 0.934172
0.57735 0.57735 -0.57735
0.57735 0.57735 0.57735
-0.57735 0.57735 -0.57735
-0.57735 0.57735 0.57735
0.57735 -0.57735 -0.57735
0.57735 -0.57735 0.57735
-0.57735 -0.57735 -0.57735
3 18 2 1
3 11 18 1
3 14 11 1
3 7 13 1
3 17 7 1
3 2 17 1
3 19 4 3
3 8 19 3
3 15 8 3
3 12 16 3
3 0 12 3
3 4 0 3
3 6 15 3
3 5 6 3
3 16 5 3
3 5 14 1
3 6 5 1
3 13 6 1
3 9 17 2
3 10 9 2
3 18 10 2
3 10 0 4
3 9 10 4
3 19 9 4
3 19 8 7
3 9 19 7
3 17 9 7
3 8 15 6
3 7 8 6
3 13 7 6
3 11 14 5
3 12 11 5
3 16 12 5
3 12 0 10
3 11 12 10
3 18 11 10
